<svg preserveAspectRatio="none" width="100%" height="100%" overflow="visible" style="display: block;" viewBox="0 0 51.8688 47.7951" fill="none" xmlns="http://www.w3.org/2000/svg">
<g id="Group">
<g id="Group_2">
<path id="Vector" d="M41.9647 0.645535L41.9563 0.898124C41.919 2.13564 42.5077 3.31044 43.5227 4.01735L46.83 6.32118C48.0294 7.14167 48.7213 8.5165 48.6891 9.95915L48.5961 14.087C48.569 15.3076 49.1509 16.4621 50.1456 17.1639C50.1964 17.1995 50.2438 17.2334 50.2911 17.2656C50.6227 17.4995 51.0828 17.3826 51.2672 17.0198C51.5446 16.4739 51.702 15.8603 51.7121 15.2178L51.8678 8.31307C51.8999 6.87043 51.208 5.4956 50.0086 4.6751L44.196 0.626887C43.7934 0.314964 43.34 0.136965 42.7666 0.014908C42.3606 -0.0715489 41.9749 0.228507 41.963 0.643839L41.9647 0.645535Z" fill="var(--fill-0, white)"/>
<path id="Vector_2" d="M9.9075 0.645501L9.91596 0.898091C9.95318 2.13561 9.36448 3.31041 8.34947 4.01732L5.04225 6.32114C3.84286 7.14163 3.15097 8.51647 3.18311 9.95911L3.27615 14.087C3.30322 15.3076 2.72128 16.462 1.72658 17.1639C1.67583 17.1995 1.62846 17.2334 1.58109 17.2656C1.24953 17.4995 0.789392 17.3825 0.604999 17.0198C0.327565 16.4739 0.17024 15.8602 0.16009 15.2177L0.00107252 8.31643C-0.0310692 6.87379 0.660824 5.49895 1.86022 4.67846L7.6728 0.630244C8.07542 0.318321 8.52879 0.140322 9.10227 0.0182649C9.50827 -0.0681919 9.89397 0.231864 9.90581 0.647196L9.9075 0.645501Z" fill="var(--fill-0, white)"/>
</g>
<path id="Vector_3" d="M16.6283 41.9686L16.8499 41.8448C17.9308 41.243 19.2419 41.2295 20.3347 41.8092L23.894 43.6977C25.1712 44.3894 26.7089 44.3758 27.9726 43.6842L31.5911 41.7075C32.6602 41.1227 33.951 41.1125 35.0303 41.677C35.0844 41.7058 35.1368 41.7329 35.1876 41.7584C35.5479 41.9465 35.6545 42.411 35.4176 42.7399C35.0607 43.2366 34.5887 43.6587 34.0237 43.9639L27.9726 47.2696C26.7072 47.9612 25.1712 47.9748 23.894 47.2831L17.6399 43.9639C17.178 43.7486 16.8126 43.4265 16.4405 42.9722C16.1783 42.6501 16.2662 42.1686 16.6299 41.9669L16.6283 41.9686Z" fill="var(--fill-0, white)"/>
</g>
</svg>
