<svg width="49" height="50" viewBox="0 0 49 50" fill="none" xmlns="http://www.w3.org/2000/svg">
<path d="M16.8946 21.7142C22.8858 21.7142 27.7424 16.8535 27.7424 10.8571C27.7424 4.8607 22.8858 0 16.8946 0C10.9034 0 6.04688 4.8607 6.04688 10.8571C6.04688 16.8535 10.9034 21.7142 16.8946 21.7142Z" fill="white"/>
<path d="M23.513 40.7343C21.8232 39.0431 20.8915 36.793 20.8915 34.4003V34.0791C20.8915 29.3168 24.7623 25.4426 29.5206 25.4426C30.6455 25.4426 31.7376 25.6589 32.7479 26.0654C31.2841 23.617 28.7903 21.8504 25.8577 21.3604C23.4671 23.4056 20.3577 24.6363 16.9863 24.6363C13.6149 24.6363 10.5301 23.4121 8.14768 21.3849C3.51221 22.2289 0 26.2784 0 31.1309V46.988H29.7629L23.513 40.7327V40.7343Z" fill="white"/>
<path d="M25.6763 39.4723L36.1949 50L46.7136 39.4723C47.9514 38.2334 48.6473 36.552 48.6473 34.7984V34.5018C48.6473 31.0144 45.8228 28.1875 42.3384 28.1875C40.4227 28.1875 38.6101 29.0593 37.4131 30.5572L36.1933 32.0829L34.9734 30.5572C33.7765 29.0593 31.9639 28.1875 30.0481 28.1875C26.5638 28.1875 23.7393 31.0144 23.7393 34.5018V34.7984C23.7393 36.552 24.4352 38.2334 25.673 39.4723H25.6763Z" fill="white"/>
</svg>
