<svg preserveAspectRatio="none" width="100%" height="100%" overflow="visible" style="display: block;" viewBox="0 0 49.0002 42.7514" fill="none" xmlns="http://www.w3.org/2000/svg">
<g id="Group">
<path id="Vector" d="M47.274 12.0928C46.3202 12.0928 45.5479 11.3186 45.5479 10.3659C45.5479 8.52045 44.8295 6.78455 43.5248 5.47925C42.22 4.17395 40.4864 3.45529 38.6403 3.45529C37.6864 3.45529 36.9126 2.68261 36.9126 1.72839C36.9126 0.774177 37.6864 0 38.6388 0C41.4057 0 44.0077 1.07875 45.9648 3.03519C47.9219 4.99314 48.9987 7.59623 49.0002 10.3644C49.0002 11.3186 48.2263 12.0928 47.274 12.0928Z" fill="var(--fill-0, white)"/>
<path id="Vector_2" d="M39.6371 6.00049H3.58728C1.60618 6.00049 0 7.60736 0 9.58931V33.6773C0 35.6593 1.60618 37.2661 3.58728 37.2661H18.0234V38.6569C18.0234 39.0575 18.1029 39.4386 18.2469 39.7882H12.47C10.8368 39.7882 9.5126 41.113 9.5126 42.7469C9.5126 42.7469 9.5126 42.7499 9.5126 42.7514H33.7073C33.7073 42.7514 33.7073 42.7484 33.7073 42.7469C33.7073 41.113 32.383 39.7882 30.7498 39.7882H24.973C25.117 39.4401 25.1965 39.0575 25.1965 38.6569V37.2661H39.6326C41.6137 37.2661 43.2199 35.6593 43.2199 33.6773V9.58931C43.2199 7.60736 41.6137 6.00049 39.6326 6.00049H39.6371ZM26.5072 23.403L18.5783 28.0585C17.302 28.8072 15.7334 27.832 15.7334 26.2896V16.9785C15.7334 15.4361 17.302 14.4609 18.5783 15.2096L26.5072 19.8652C27.8209 20.6363 27.8209 22.6318 26.5072 23.403ZM37.9799 13.4197C36.5927 13.4197 35.4679 12.2944 35.4679 10.9066C35.4679 9.51879 36.5927 8.39353 37.9799 8.39353C39.3671 8.39353 40.4919 9.51879 40.4919 10.9066C40.4919 12.2944 39.3671 13.4197 37.9799 13.4197Z" fill="var(--fill-0, white)"/>
</g>
</svg>
