<svg preserveAspectRatio="none" width="100%" height="100%" overflow="visible" style="display: block;" viewBox="0 0 40.9771 43.097" fill="none" xmlns="http://www.w3.org/2000/svg">
<g id="Group">
<path id="Vector" d="M38.9318 12.9151L22.7425 21.3811C21.9119 21.815 21.3926 22.6762 21.3926 23.6137V41.8391C21.3926 42.602 22.0659 43.1953 22.8187 43.0834C23.7389 42.9461 24.6406 42.6478 25.4797 42.19L36.917 35.9414C39.4089 34.5835 40.9771 32 40.9771 29.2079V15.4816C40.9771 14.9002 40.8773 14.2933 40.7284 13.7118C40.5288 12.9286 39.6474 12.5404 38.9318 12.9134V12.9151ZM29.9254 34.431C28.7615 34.431 27.8175 33.4918 27.8175 32.3306C27.8175 31.1693 28.7615 30.2302 29.9254 30.2302C31.0892 30.2302 32.0332 31.1693 32.0332 32.3306C32.0332 33.4918 31.0909 34.431 29.9254 34.431ZM34.1156 23.9578C32.9501 23.9578 32.0061 23.0187 32.0061 21.8574C32.0061 20.6962 32.9501 19.757 34.1156 19.757C35.2812 19.757 36.2235 20.6979 36.2235 21.8574C36.2235 23.017 35.2795 23.9578 34.1156 23.9578Z" fill="var(--fill-0, white)"/>
<path id="Vector_2" d="M2.20256 12.4034C1.51743 12.0219 0.661444 12.3593 0.406001 13.1018C0.140409 13.8748 0 14.6953 0 15.5328V29.1048C0 31.9223 1.59525 34.5346 4.13783 35.8891L15.9626 42.214C16.6376 42.5717 17.3481 42.8294 18.0772 42.9854C18.8537 43.1532 19.5862 42.5531 19.5862 41.7563V23.5665C19.5862 22.6527 19.0922 21.8102 18.2937 21.3644C18.2937 21.3644 6.0934 14.5682 2.20087 12.4L2.20256 12.4034ZM4.98874 23.9564C3.82318 23.9564 2.88092 23.0172 2.88092 21.856C2.88092 20.6947 3.82318 19.7556 4.98874 19.7556C6.1543 19.7556 7.09656 20.6964 7.09656 21.856C7.09656 23.0155 6.15261 23.9564 4.98874 23.9564ZM9.17901 30.2304C8.01345 30.2304 7.07119 29.2913 7.07119 28.13C7.07119 26.9688 8.01345 26.0296 9.17901 26.0296C10.3446 26.0296 11.2868 26.9688 11.2868 28.13C11.2868 29.2913 10.3429 30.2304 9.17901 30.2304ZM13.393 36.5299C12.2291 36.5299 11.2851 35.5908 11.2851 34.4295C11.2851 33.2683 12.2291 32.3291 13.393 32.3291C14.5568 32.3291 15.5008 33.2683 15.5008 34.4295C15.5008 35.5908 14.5585 36.5299 13.393 36.5299Z" fill="var(--fill-0, white)"/>
<path id="Vector_3" d="M38.2165 11.4114C38.8965 11.0554 39.0995 10.1789 38.6512 9.55507C37.9779 8.61422 37.0847 7.81746 36.0156 7.24277L24.5765 0.992446C22.1845 -0.312883 19.2799 -0.340007 16.8642 0.967018L5.04109 7.24108C4.16818 7.64963 3.47629 8.25822 2.77424 9.1177C2.27859 9.72629 2.44606 10.6349 3.13119 11.0164L19.3053 20.0214C20.0445 20.4334 20.9394 20.4452 21.6888 20.052C21.6888 20.052 34.2782 13.4677 38.2148 11.4097L38.2165 11.4114ZM20.5419 7.49536C21.699 7.49536 22.6497 8.443 22.6497 9.59576C22.6497 10.7485 21.699 11.6961 20.5419 11.6961C19.3848 11.6961 18.434 10.7485 18.434 9.59576C18.434 8.443 19.3848 7.49536 20.5419 7.49536Z" fill="var(--fill-0, white)"/>
</g>
</svg>
