<svg preserveAspectRatio="none" width="100%" height="100%" overflow="visible" style="display: block;" viewBox="0 0 46 46" fill="none" xmlns="http://www.w3.org/2000/svg">
<path id="Vector" d="M45.9849 18.957L44.681 4.60544C44.5218 2.86094 43.1407 1.4782 41.3946 1.31902L27.043 0.0150686C25.9706 -0.0830095 24.9094 0.301264 24.1489 1.06338L1.06358 24.1471C-0.354528 25.5652 -0.354528 27.8628 1.06358 29.2793L16.7207 44.9364C18.1388 46.3545 20.4364 46.3545 21.8529 44.9364L44.9366 21.8527C45.6987 21.0906 46.083 20.031 45.9849 18.9586V18.957ZM31.4131 14.5869C29.7394 12.9131 29.7394 10.1975 31.4131 8.52374C33.0869 6.84998 35.8025 6.84998 37.4763 8.52374C39.15 10.1975 39.15 12.9131 37.4763 14.5869C35.8025 16.2607 33.0869 16.2607 31.4131 14.5869Z" fill="var(--fill-0, white)"/>
</svg>
