<svg preserveAspectRatio="none" width="100%" height="100%" overflow="visible" style="display: block;" viewBox="0 0 53.4761 34.0001" fill="none" xmlns="http://www.w3.org/2000/svg">
<g id="Layer 8">
<path id="Vector" d="M26.7385 15.7119C31.0481 15.7119 34.5429 12.1949 34.5429 7.85532C34.5429 3.51571 31.0481 0 26.7385 0C22.4288 0 18.934 3.51691 18.934 7.85653C18.934 12.1961 22.4276 15.7131 26.7385 15.7131V15.7119Z" fill="var(--fill-0, white)"/>
<path id="Vector_2" d="M39.1477 22.5256V34.0001H14.585V22.5256C14.585 19.0135 17.112 16.0847 20.4455 15.4725C22.16 16.9399 24.3787 17.8252 26.8042 17.8252C29.2296 17.8252 31.4663 16.9339 33.1868 15.4545C36.5741 16.0246 39.1477 18.9726 39.1477 22.5256Z" fill="var(--fill-0, white)"/>
<path id="Vector_3" d="M44.6482 15.7119C47.8276 15.7119 50.4048 13.1175 50.4048 9.91696C50.4048 6.71637 47.8276 4.12199 44.6482 4.12199C41.4689 4.12199 38.8917 6.71637 38.8917 9.91696C38.8917 13.1175 41.4689 15.7119 44.6482 15.7119Z" fill="var(--fill-0, white)"/>
<path id="Vector_4" d="M53.4759 20.5976V28.5912H40.7524V22.4823C40.7524 20.0118 39.7607 17.7602 38.1239 16.1365C38.6556 15.8105 39.2458 15.5796 39.8778 15.4605C41.124 16.5334 42.737 17.1793 44.4969 17.1793C46.2569 17.1793 47.8878 16.5274 49.1399 15.4545C51.5976 15.8695 53.4759 18.014 53.4759 20.5976Z" fill="var(--fill-0, white)"/>
<path id="Vector_5" d="M8.82731 15.7119C12.0067 15.7119 14.5839 13.1175 14.5839 9.91696C14.5839 6.71637 12.0067 4.12199 8.82731 4.12199C5.64795 4.12199 3.07076 6.71637 3.07076 9.91696C3.07076 13.1175 5.64795 15.7119 8.82731 15.7119Z" fill="var(--fill-0, white)"/>
<path id="Vector_6" d="M15.352 16.1954C13.7533 17.8131 12.7832 20.0527 12.7832 22.4823V28.5912H0V20.5976C0 18.0381 1.82804 15.9103 4.23796 15.4605C5.47816 16.5334 7.08875 17.1793 8.84033 17.1793C10.5919 17.1793 12.2144 16.5274 13.4546 15.4545C14.1428 15.5736 14.7833 15.8213 15.3532 16.1954H15.352Z" fill="var(--fill-0, white)"/>
</g>
</svg>
