<svg preserveAspectRatio="none" width="100%" height="100%" overflow="visible" style="display: block;" viewBox="0 0 48.0002 41.5996" fill="none" xmlns="http://www.w3.org/2000/svg">
<g id="Group">
<path id="Vector" d="M9.36575 32.225H0V41.5995H9.36575V32.225Z" fill="var(--fill-0, white)"/>
<path id="Vector_2" d="M22.2438 25.1937H12.878V41.5996H22.2438V25.1937Z" fill="var(--fill-0, white)"/>
<path id="Vector_3" d="M48.0002 25.1937H38.6345V41.5996H48.0002V25.1937Z" fill="var(--fill-0, white)"/>
<path id="Vector_4" d="M35.1222 14.6469H25.7565V41.5996H35.1222V14.6469Z" fill="var(--fill-0, white)"/>
<path id="Vector_5" d="M43.7223 10.5624C42.3519 10.4461 41.0964 10.9261 40.1736 11.7668L34.4582 7.08608C34.961 6.24536 35.2139 5.23881 35.0947 4.16245C34.8462 1.92099 32.9949 0.152265 30.7454 0.00971923C28.0206 -0.163372 25.758 1.99808 25.758 4.68754C25.758 5.56608 26.0036 6.38499 26.4236 7.08754L20.7082 11.7683C19.7942 10.9377 18.5561 10.4577 17.2032 10.561C15.1033 10.7195 13.3522 12.305 12.9628 14.3763C12.7971 15.2577 12.8974 16.0955 13.172 16.8475L8.4187 19.4424C7.50174 18.2294 6.01078 17.473 4.34834 17.5908C2.0465 17.7537 0.180615 19.6184 0.0164058 21.9224C-0.187039 24.785 2.17874 27.1501 5.0386 26.9406C7.13844 26.7864 8.89098 25.2068 9.28624 23.137C9.45481 22.2512 9.356 21.409 9.07844 20.6541L13.8318 18.0592C14.7691 19.297 16.3007 20.0606 18.0053 19.9035C20.1299 19.7086 21.8751 18.0635 22.1919 15.9515C22.3649 14.8039 22.112 13.7275 21.5802 12.8374L27.2955 8.15663C28.1267 8.91299 29.2282 9.37845 30.4402 9.37845C31.6521 9.37845 32.7537 8.91299 33.5849 8.15663L39.3002 12.8374C38.8599 13.5734 38.6114 14.4374 38.6361 15.3639C38.7044 17.9297 40.8798 19.9908 43.4433 19.9239C46.0067 19.857 48.1617 17.6155 47.9903 14.9304C47.8435 12.6366 46.011 10.7617 43.7223 10.5683V10.5624Z" fill="var(--fill-0, white)"/>
</g>
</svg>
