<svg preserveAspectRatio="none" width="100%" height="100%" overflow="visible" style="display: block;" viewBox="0 0 90.0011 30.0009" fill="none" xmlns="http://www.w3.org/2000/svg">
<g id="Group">
<path id="Vector" d="M85.888 29.3147C82.7554 30.2324 79.3315 30.2281 76.1977 29.3114C75.8306 29.2036 75.469 29.0839 75.1106 28.9513L76.2945 25.7378C76.622 25.8639 76.9529 25.9793 77.2903 26.0785C79.7151 26.7881 82.3663 26.7913 84.7899 26.0807C85.1219 25.9836 85.4472 25.8704 85.7693 25.7464L86.9531 28.961C86.6025 29.0904 86.2474 29.2101 85.8891 29.3147H85.888Z" fill="var(--fill-0, #FF5E39)"/>
<path id="Vector_2" d="M65.3632 23.6846H69.4686V6.32295H65.3632V23.6846Z" fill="var(--fill-0, #FF5E39)"/>
<path id="Vector_3" d="M32.132 6.30677H24.7709C22.9946 11.0947 20.0994 18.8988 18.3232 23.6856H38.5787C38.261 22.8294 37.4124 20.5411 37.0838 19.6569C36.0231 16.796 33.1499 9.05228 32.1309 6.30785L32.132 6.30677ZM24.1861 19.6558L27.6441 10.3334H29.2566L32.7146 19.6558H24.185H24.1861Z" fill="var(--fill-0, #FF5E39)"/>
<path id="Vector_4" d="M72.0594 15.0113C72.2836 26.6716 89.9824 26.5271 90.0011 14.8646C89.6032 3.38765 72.2528 3.54293 72.0594 15.0113ZM81.0319 20.0915C74.2269 19.9718 74.2269 10.0487 81.0319 9.93006C87.7885 9.96026 87.8127 20.058 81.0319 20.0915Z" fill="var(--fill-0, #FF5E39)"/>
<path id="Vector_5" d="M17.4878 13.3334H10.2069L8.90437 16.8445H13.5264C12.9152 18.4157 11.7215 19.356 10.3696 19.7421C10.363 19.7442 10.3553 19.7464 10.3487 19.7485C10.2948 19.7636 10.241 19.7744 10.186 19.7873C9.81998 19.8779 9.44516 19.9308 9.06705 19.9437C9.0011 19.9459 8.93515 19.9437 8.8681 19.9437C8.80215 19.9437 8.7362 19.9459 8.66915 19.9437C8.29104 19.9308 7.91622 19.8779 7.5502 19.7873C7.49634 19.7744 7.44138 19.7636 7.38752 19.7485C7.38092 19.7464 7.37323 19.7442 7.36663 19.7421C5.33537 19.1867 3.62946 17.5185 3.66133 14.9876C3.64704 14.402 3.74377 13.8467 3.92843 13.3334C4.3714 12.104 5.32438 11.1141 6.4873 10.5329C7.17868 10.1878 7.9448 9.98828 8.72301 9.96779C8.77137 9.96671 8.81864 9.96779 8.867 9.96779C8.91536 9.96779 8.96263 9.96779 9.01099 9.96779C9.7892 9.98828 10.5553 10.1867 11.2467 10.5329L12.514 7.1166C11.2126 6.61193 9.99475 6.35852 8.867 6.30675C8.75489 6.30136 8.64497 6.30028 8.53395 6.29921C5.63654 6.40381 3.09416 7.87146 1.55423 10.0692C0.575965 11.4689 0 13.1641 0 14.9919C0 15.4308 0.0340743 15.8621 0.0978261 16.2827C0.56937 19.3927 2.71825 21.9624 5.61346 23.085C5.71128 23.1184 5.81021 23.1518 5.91133 23.1831C6.05532 23.2381 6.20151 23.2877 6.3488 23.3341C7.05667 23.539 7.80081 23.6597 8.57023 23.6856C8.67025 23.6856 8.77027 23.6856 8.8703 23.6824C8.97032 23.6856 9.07035 23.6856 9.16927 23.6856C9.94419 23.6608 10.6938 23.5379 11.4061 23.3298C11.5479 23.2845 11.6897 23.2359 11.8282 23.1831C11.926 23.1529 12.0216 23.1206 12.1172 23.0882C15.0333 21.9613 17.1943 19.3635 17.6472 16.2244C17.6856 15.861 17.7032 15.4944 17.6977 15.1267C17.6911 14.6392 17.6472 14.1508 17.5669 13.6687C17.5427 13.5566 17.5186 13.4444 17.4878 13.3344V13.3334Z" fill="var(--fill-0, #FF5E39)"/>
<path id="Vector_6" d="M13.7076 0.686341C10.575 -0.231344 7.15106 -0.22703 4.01733 0.689577C3.65021 0.797413 3.28858 0.917111 2.93025 1.04975L4.11406 4.26326C4.44161 4.1371 4.77246 4.02171 5.1099 3.9225C7.53467 3.21294 10.1859 3.20971 12.6095 3.92035C12.9415 4.0174 13.2668 4.13063 13.5889 4.25464L14.7727 1.04004C14.4221 0.910641 14.067 0.790942 13.7087 0.686341H13.7076Z" fill="var(--fill-0, #FF5E39)"/>
<path id="Vector_7" d="M54.8255 6.32295C54.8255 6.32295 51.4884 11.0009 51.3279 11.1993C51.1674 11.0009 47.8304 6.32295 47.8304 6.32295H41.0639V23.6846H45.1693V10.3517H46.1288L51.3268 16.8974L56.5248 10.3517H57.4844V23.6846H61.5898V6.32295H54.8233H54.8255Z" fill="var(--fill-0, #FF5E39)"/>
</g>
</svg>
