<svg preserveAspectRatio="none" width="100%" height="100%" overflow="visible" style="display: block;" viewBox="0 0 88 88.1422" fill="none" xmlns="http://www.w3.org/2000/svg">
<g id="Group 3802037">
<path id="Vector" d="M44 88.1422C68.3005 88.1422 88 68.4109 88 44.0711C88 19.7313 68.3005 3.57628e-07 44 3.57628e-07C19.6995 3.57628e-07 0 19.7313 0 44.0711C0 68.4109 19.6995 88.1422 44 88.1422Z" fill="var(--fill-0, white)" fill-opacity="0.16"/>
<path id="Vector_2" d="M44.0002 81.8463C64.8292 81.8463 81.7145 64.9338 81.7145 44.0711C81.7145 23.2084 64.8292 6.29587 44.0002 6.29587C23.1712 6.29587 6.28593 23.2084 6.28593 44.0711C6.28593 64.9338 23.1712 81.8463 44.0002 81.8463Z" fill="var(--fill-0, white)" fill-opacity="0.1"/>
<path id="Vector (Stroke)" d="M80.1426 44.0711C80.1426 24.0777 63.9609 7.86984 43.9998 7.86984C24.0386 7.86984 7.85693 24.0777 7.85693 44.0711C7.85693 64.0645 24.0386 80.2723 43.9998 80.2723C63.9609 80.2723 80.1426 64.0645 80.1426 44.0711ZM83.2855 44.0711C83.2855 65.803 65.6967 83.4203 43.9998 83.4203C22.3029 83.4203 4.71407 65.803 4.71407 44.0711C4.71407 22.3391 22.3029 4.72191 43.9998 4.72191C65.6967 4.72191 83.2855 22.3391 83.2855 44.0711Z" fill="var(--fill-0, white)" fill-opacity="0.16"/>
<g id="Star Icon">
<path id="Vector_3" d="M38.1842 28.399C40.7718 23.7571 42.0655 21.4362 43.9999 21.4362C45.9343 21.4362 47.228 23.7571 49.8155 28.399L50.4849 29.5999C51.2204 30.919 51.5879 31.5786 52.1613 32.0137C52.7345 32.4489 53.4483 32.6104 54.8763 32.9335L56.1763 33.2276C61.2009 34.3645 63.7135 34.933 64.3112 36.8551C64.9089 38.7772 63.1962 40.7802 59.7705 44.7859L58.8843 45.8222C57.9109 46.9605 57.4241 47.5296 57.2051 48.2338C56.9863 48.938 57.0599 49.6973 57.207 51.2162L57.341 52.5988C57.8588 57.9433 58.1179 60.6156 56.553 61.8035C54.988 62.9914 52.6357 61.9083 47.931 59.7423L46.7138 59.1817C45.377 58.5662 44.7086 58.2583 43.9999 58.2583C43.2912 58.2583 42.6228 58.5662 41.286 59.1817L40.0688 59.7423C35.3641 61.9083 33.0118 62.9914 31.4469 61.8035C29.882 60.6156 30.1409 57.9433 30.6588 52.5988L30.7928 51.2162C30.94 49.6973 31.0136 48.938 30.7946 48.2338C30.5757 47.5296 30.0889 46.9605 29.1155 45.8222L28.2293 44.7859C24.8037 40.7802 23.0909 38.7772 23.6887 36.8551C24.2864 34.933 26.7988 34.3645 31.8236 33.2276L33.1235 32.9335C34.5514 32.6104 35.2653 32.4489 35.8386 32.0137C36.4118 31.5786 36.7795 30.919 37.5148 29.5999L38.1842 28.399Z" fill="var(--fill-0, white)" fill-opacity="0.4"/>
</g>
</g>
</svg>
