<svg preserveAspectRatio="none" width="100%" height="100%" overflow="visible" style="display: block;" viewBox="0 0 85.6709 95.0193" fill="none" xmlns="http://www.w3.org/2000/svg">
<g id="Group 3802039">
<path id="Vector 287" d="M43.1145 40.1918L0 18.6969L1.67435 71.2993L43.1145 95.0193V40.1918Z" fill="var(--fill-0, white)" fill-opacity="0.1"/>
<path id="Vector 290" d="M85.6708 18.6969L43.1144 40.1918V95.0193L84.2755 71.2993L85.6708 18.6969Z" fill="var(--fill-0, white)" fill-opacity="0.16"/>
<path id="Vector 289" opacity="0.4" d="M43.1145 0L0 18.6969L43.1145 40.1844L85.6709 18.6969L43.1145 0Z" fill="var(--fill-0, white)" fill-opacity="0.2"/>
<ellipse id="Ellipse 375" opacity="0.4" cx="19.2515" cy="18.0667" rx="2.73111" ry="5.23375" transform="rotate(88.6086 19.2515 18.0667)" fill="var(--fill-0, white)"/>
<ellipse id="Ellipse 376" opacity="0.4" cx="42.9651" cy="17.9265" rx="2.73111" ry="5.23375" transform="rotate(88.6086 42.9651 17.9265)" fill="var(--fill-0, white)"/>
<ellipse id="Ellipse 377" opacity="0.4" cx="66.7582" cy="17.8597" rx="2.6661" ry="5.15893" transform="rotate(88.6086 66.7582 17.8597)" fill="var(--fill-0, white)"/>
<ellipse id="Ellipse 378" opacity="0.4" cx="9.51688" cy="34.4562" rx="3.17322" ry="5.00579" transform="rotate(-16.9404 9.51688 34.4562)" fill="var(--fill-0, white)"/>
<ellipse id="Ellipse 379" opacity="0.4" cx="10.5305" cy="64.1969" rx="3.17322" ry="5.00579" transform="rotate(-23.2989 10.5305 64.1969)" fill="var(--fill-0, white)"/>
<ellipse id="Ellipse 380" opacity="0.4" cx="33.1049" cy="46.4322" rx="3.38461" ry="5.16942" transform="rotate(-16.9404 33.1049 46.4322)" fill="var(--fill-0, white)"/>
<ellipse id="Ellipse 381" opacity="0.4" cx="21.1053" cy="55.4852" rx="3.38461" ry="5.16942" transform="rotate(-18.8246 21.1053 55.4852)" fill="var(--fill-0, white)"/>
<ellipse id="Ellipse 382" opacity="0.4" cx="3.38461" cy="5.16942" rx="3.38461" ry="5.16942" transform="matrix(-0.946511 -0.322673 -0.322673 0.946511 71.415 51.6844)" fill="var(--fill-0, white)"/>
<ellipse id="Ellipse 383" opacity="0.4" cx="33.2425" cy="76.7713" rx="3.38461" ry="5.39665" transform="rotate(-23.2797 33.2425 76.7713)" fill="var(--fill-0, white)"/>
</g>
</svg>
