<svg preserveAspectRatio="none" width="100%" height="100%" overflow="visible" style="display: block;" viewBox="0 0 77.0771 97.5744" fill="none" xmlns="http://www.w3.org/2000/svg">
<g id="Group 3802038">
<path id="Union" d="M32.5127 1.62898C33.9197 -2.06787 39.5281 1.14888 38.0264 5.09968C34.6324 13.9799 29.8408 9.37124 28.8711 12.626C28.6976 13.2084 28.6526 13.8415 28.6875 14.4971C33.8313 14.1019 38.2292 15.4492 38.6357 17.1036L39.3623 20.0303C39.4292 20.0355 39.4965 20.0394 39.5635 20.045C44.6067 20.4632 49.3058 21.9532 53.4648 24.2745C67.3365 30.0459 77.0771 43.6179 77.0771 59.4415C77.0771 80.5018 59.8224 97.5743 38.5381 97.5743C17.2539 97.5741 0 80.5017 0 59.4415C1.405e-05 52.9863 1.62215 46.9064 4.4834 41.5772C6.8746 35.8796 10.674 30.9793 15.4043 27.2891L14.3447 23.0108C13.8839 21.2269 17.3353 17.7021 22.6699 15.7784C22.3958 13.9824 22.3122 12.0901 22.6348 10.3497C23.7091 4.55499 29.6796 9.05106 32.5127 1.62898Z" fill="var(--fill-0, white)" fill-opacity="0.16"/>
<path id="Vector" d="M25.3645 45.9795C30.0819 39.7558 31.0058 32.5582 27.4281 29.9032C23.8503 27.2481 17.1258 30.141 12.4084 36.3647C7.69102 42.5884 6.76714 49.786 10.3449 52.4411C13.9226 55.0961 20.6471 52.2032 25.3645 45.9795Z" fill="var(--fill-0, white)" fill-opacity="0.4"/>
<path id="Vector_2" d="M13.0418 73.0549C15.6822 72.874 17.5881 69.3752 17.2988 65.24C17.0095 61.1048 14.6345 57.8992 11.9942 58.08C9.3538 58.2609 7.44791 61.7597 7.73721 65.8949C8.02651 70.0301 10.4015 73.2357 13.0418 73.0549Z" fill="var(--fill-0, white)" fill-opacity="0.4"/>
</g>
</svg>
